<svg width="25" height="24" viewBox="0 0 25 24" fill="none" xmlns="http://www.w3.org/2000/svg">
<path d="M19.002 2C18.7367 2 18.4824 2.10536 18.2948 2.29289C18.1073 2.48043 18.002 2.73478 18.002 3V8.46L17.002 9.13V3C17.002 2.73478 16.8966 2.48043 16.7091 2.29289C16.5215 2.10536 16.2672 2 16.002 2C15.7367 2 15.4824 2.10536 15.2948 2.29289C15.1073 2.48043 15.002 2.73478 15.002 3V9.13L14.002 8.46V3C14.002 2.73478 13.8966 2.48043 13.7091 2.29289C13.5215 2.10536 13.2672 2 13.002 2C12.7367 2 12.4824 2.10536 12.2948 2.29289C12.1073 2.48043 12.002 2.73478 12.002 3V9C12.0028 9.16471 12.0443 9.32665 12.1228 9.47145C12.2013 9.61625 12.3144 9.73941 12.452 9.83L15.002 11.54V21C15.002 21.2652 15.1073 21.5196 15.2948 21.7071C15.4824 21.8946 15.7367 22 16.002 22C16.2672 22 16.5215 21.8946 16.7091 21.7071C16.8966 21.5196 17.002 21.2652 17.002 21V11.54L19.552 9.83C19.6895 9.73941 19.8026 9.61625 19.8811 9.47145C19.9596 9.32665 20.0011 9.16471 20.002 9V3C20.002 2.73478 19.8966 2.48043 19.7091 2.29289C19.5215 2.10536 19.2672 2 19.002 2V2ZM9.00195 2C7.67587 2 6.4041 2.52678 5.46642 3.46447C4.52874 4.40215 4.00195 5.67392 4.00195 7V13C4.00195 13.2652 4.10731 13.5196 4.29485 13.7071C4.48238 13.8946 4.73674 14 5.00195 14H8.00195V21C8.00195 21.2652 8.10731 21.5196 8.29485 21.7071C8.48238 21.8946 8.73674 22 9.00195 22C9.26717 22 9.52152 21.8946 9.70906 21.7071C9.8966 21.5196 10.002 21.2652 10.002 21V3C10.002 2.73478 9.8966 2.48043 9.70906 2.29289C9.52152 2.10536 9.26717 2 9.00195 2V2ZM8.00195 12H6.00195V7C6.00163 6.37935 6.19381 5.77387 6.55201 5.26702C6.91021 4.76016 7.4168 4.37688 8.00195 4.17V12Z" fill="#3B3E44"/>
</svg>
