<svg width="25" height="24" viewBox="0 0 25 24" fill="none" xmlns="http://www.w3.org/2000/svg">
<path d="M12.8203 14C13.0181 14 13.2114 13.9414 13.3759 13.8315C13.5403 13.7216 13.6685 13.5654 13.7442 13.3827C13.8199 13.2 13.8397 12.9989 13.8011 12.8049C13.7625 12.6109 13.6673 12.4327 13.5274 12.2929C13.3876 12.153 13.2094 12.0578 13.0154 12.0192C12.8214 11.9806 12.6204 12.0004 12.4376 12.0761C12.2549 12.1518 12.0987 12.28 11.9888 12.4444C11.879 12.6089 11.8203 12.8022 11.8203 13C11.8203 13.2652 11.9257 13.5196 12.1132 13.7071C12.3007 13.8946 12.5551 14 12.8203 14ZM17.8203 14C18.0181 14 18.2114 13.9414 18.3759 13.8315C18.5403 13.7216 18.6685 13.5654 18.7442 13.3827C18.8199 13.2 18.8397 12.9989 18.8011 12.8049C18.7625 12.6109 18.6673 12.4327 18.5274 12.2929C18.3876 12.153 18.2094 12.0578 18.0154 12.0192C17.8214 11.9806 17.6204 12.0004 17.4376 12.0761C17.2549 12.1518 17.0987 12.28 16.9888 12.4444C16.879 12.6089 16.8203 12.8022 16.8203 13C16.8203 13.2652 16.9257 13.5196 17.1132 13.7071C17.3007 13.8946 17.5551 14 17.8203 14ZM12.8203 18C13.0181 18 13.2114 17.9414 13.3759 17.8315C13.5403 17.7216 13.6685 17.5654 13.7442 17.3827C13.8199 17.2 13.8397 16.9989 13.8011 16.8049C13.7625 16.6109 13.6673 16.4327 13.5274 16.2929C13.3876 16.153 13.2094 16.0578 13.0154 16.0192C12.8214 15.9806 12.6204 16.0004 12.4376 16.0761C12.2549 16.1518 12.0987 16.28 11.9888 16.4444C11.879 16.6089 11.8203 16.8022 11.8203 17C11.8203 17.2652 11.9257 17.5196 12.1132 17.7071C12.3007 17.8946 12.5551 18 12.8203 18ZM17.8203 18C18.0181 18 18.2114 17.9414 18.3759 17.8315C18.5403 17.7216 18.6685 17.5654 18.7442 17.3827C18.8199 17.2 18.8397 16.9989 18.8011 16.8049C18.7625 16.6109 18.6673 16.4327 18.5274 16.2929C18.3876 16.153 18.2094 16.0578 18.0154 16.0192C17.8214 15.9806 17.6204 16.0004 17.4376 16.0761C17.2549 16.1518 17.0987 16.28 16.9888 16.4444C16.879 16.6089 16.8203 16.8022 16.8203 17C16.8203 17.2652 16.9257 17.5196 17.1132 17.7071C17.3007 17.8946 17.5551 18 17.8203 18ZM7.82031 14C8.01809 14 8.21143 13.9414 8.37588 13.8315C8.54033 13.7216 8.6685 13.5654 8.74419 13.3827C8.81988 13.2 8.83968 12.9989 8.8011 12.8049C8.76251 12.6109 8.66727 12.4327 8.52742 12.2929C8.38757 12.153 8.20938 12.0578 8.0154 12.0192C7.82142 11.9806 7.62036 12.0004 7.43763 12.0761C7.2549 12.1518 7.09872 12.28 6.98884 12.4444C6.87896 12.6089 6.82031 12.8022 6.82031 13C6.82031 13.2652 6.92567 13.5196 7.11321 13.7071C7.30074 13.8946 7.5551 14 7.82031 14ZM19.8203 4H18.8203V3C18.8203 2.73478 18.715 2.48043 18.5274 2.29289C18.3399 2.10536 18.0855 2 17.8203 2C17.5551 2 17.3007 2.10536 17.1132 2.29289C16.9257 2.48043 16.8203 2.73478 16.8203 3V4H8.82031V3C8.82031 2.73478 8.71496 2.48043 8.52742 2.29289C8.33988 2.10536 8.08553 2 7.82031 2C7.5551 2 7.30074 2.10536 7.11321 2.29289C6.92567 2.48043 6.82031 2.73478 6.82031 3V4H5.82031C5.02466 4 4.2616 4.31607 3.69899 4.87868C3.13638 5.44129 2.82031 6.20435 2.82031 7V19C2.82031 19.7956 3.13638 20.5587 3.69899 21.1213C4.2616 21.6839 5.02466 22 5.82031 22H19.8203C20.616 22 21.379 21.6839 21.9416 21.1213C22.5042 20.5587 22.8203 19.7956 22.8203 19V7C22.8203 6.20435 22.5042 5.44129 21.9416 4.87868C21.379 4.31607 20.616 4 19.8203 4V4ZM20.8203 19C20.8203 19.2652 20.715 19.5196 20.5274 19.7071C20.3399 19.8946 20.0855 20 19.8203 20H5.82031C5.5551 20 5.30074 19.8946 5.11321 19.7071C4.92567 19.5196 4.82031 19.2652 4.82031 19V10H20.8203V19ZM20.8203 8H4.82031V7C4.82031 6.73478 4.92567 6.48043 5.11321 6.29289C5.30074 6.10536 5.5551 6 5.82031 6H19.8203C20.0855 6 20.3399 6.10536 20.5274 6.29289C20.715 6.48043 20.8203 6.73478 20.8203 7V8ZM7.82031 18C8.01809 18 8.21143 17.9414 8.37588 17.8315C8.54033 17.7216 8.6685 17.5654 8.74419 17.3827C8.81988 17.2 8.83968 16.9989 8.8011 16.8049C8.76251 16.6109 8.66727 16.4327 8.52742 16.2929C8.38757 16.153 8.20938 16.0578 8.0154 16.0192C7.82142 15.9806 7.62036 16.0004 7.43763 16.0761C7.2549 16.1518 7.09872 16.28 6.98884 16.4444C6.87896 16.6089 6.82031 16.8022 6.82031 17C6.82031 17.2652 6.92567 17.5196 7.11321 17.7071C7.30074 17.8946 7.5551 18 7.82031 18Z" fill="#3B3E44"/>
</svg>
