<svg width="24" height="25" viewBox="0 0 24 25" fill="none" xmlns="http://www.w3.org/2000/svg">
<path d="M12 2.5C9.84512 2.5 7.77849 3.34285 6.25476 4.84314C4.73102 6.34342 3.875 8.37825 3.875 10.5C3.875 15.9 11.0352 21.9999 11.3398 22.2599C11.5238 22.4149 11.7579 22.5 12 22.5C12.2421 22.5 12.4762 22.4149 12.6602 22.2599C13.0156 21.9999 20.125 15.9 20.125 10.5C20.125 8.37825 19.269 6.34342 17.7452 4.84314C16.2215 3.34285 14.1549 2.5 12 2.5V2.5ZM12 20.1499C9.83672 18.1499 5.90625 13.84 5.90625 10.5C5.90625 8.90868 6.54827 7.38256 7.69107 6.25735C8.83387 5.13213 10.3838 4.49999 12 4.49999C13.6162 4.49999 15.1661 5.13213 16.3089 6.25735C17.4517 7.38256 18.0937 8.90868 18.0938 10.5C18.0938 13.84 14.1633 18.1599 12 20.1499ZM12 6.49999C11.1965 6.49999 10.4111 6.73458 9.743 7.17411C9.07492 7.61363 8.55422 8.23834 8.24674 8.96925C7.93926 9.70015 7.85881 10.5044 8.01556 11.2803C8.17231 12.0563 8.55923 12.769 9.12738 13.3284C9.69553 13.8878 10.4194 14.2688 11.2074 14.4231C11.9955 14.5774 12.8123 14.4982 13.5547 14.1955C14.297 13.8927 14.9315 13.38 15.3778 12.7222C15.8242 12.0645 16.0625 11.2911 16.0625 10.5C16.0625 9.43911 15.6345 8.4217 14.8726 7.67156C14.1108 6.92141 13.0774 6.49999 12 6.49999ZM12 12.5C11.5983 12.5 11.2055 12.3827 10.8715 12.1629C10.5375 11.9431 10.2771 11.6308 10.1234 11.2653C9.96963 10.8999 9.9294 10.4978 10.0078 10.1098C10.0862 9.72183 10.2796 9.36547 10.5637 9.08577C10.8478 8.80606 11.2097 8.61558 11.6037 8.53841C11.9977 8.46124 12.4062 8.50085 12.7773 8.65222C13.1485 8.8036 13.4657 9.05994 13.6889 9.38884C13.9121 9.71773 14.0312 10.1044 14.0312 10.5C14.0312 11.0304 13.8172 11.5391 13.4363 11.9142C13.0554 12.2893 12.5387 12.5 12 12.5Z" fill="#84878B"/>
</svg>
