<svg width="25" height="24" viewBox="0 0 25 24" fill="none" xmlns="http://www.w3.org/2000/svg">
<path d="M18.995 3.00005C18.7146 2.6862 18.3713 2.43497 17.9876 2.26268C17.6038 2.09039 17.1881 2.00091 16.7676 2.00006H7.23879C6.81594 1.99749 6.39735 2.08454 6.01051 2.25551C5.62367 2.42647 5.27736 2.67746 4.99433 2.99199C4.7113 3.30652 4.49797 3.67746 4.36836 4.08043C4.23875 4.48339 4.19579 4.90926 4.24231 5.33004L5.80048 19.33C5.88195 20.0671 6.23327 20.7479 6.78664 21.241C7.34 21.7341 8.05618 22.0044 8.79695 21.9999H15.2094C15.9502 22.0044 16.6664 21.7341 17.2197 21.241C17.7731 20.7479 18.1244 20.0671 18.2059 19.33L19.7641 5.33004C19.8071 4.90933 19.7609 4.48426 19.6283 4.08271C19.4958 3.68116 19.2799 3.31221 18.995 3.00005ZM16.1982 19.11C16.1711 19.3557 16.054 19.5826 15.8695 19.747C15.6851 19.9113 15.4463 20.0015 15.1994 20H8.79695C8.55003 20.0015 8.3113 19.9113 8.12685 19.747C7.94239 19.5826 7.82529 19.3557 7.79813 19.11L6.78931 10H17.217L16.1982 19.11ZM17.4368 8.00002H6.56957L6.24995 5.11004C6.23422 4.96975 6.24834 4.82771 6.29138 4.69327C6.33442 4.55883 6.4054 4.43504 6.49966 4.33004C6.59304 4.22645 6.70705 4.14357 6.83434 4.08674C6.96164 4.02991 7.09941 4.00037 7.23879 4.00004H16.7676C16.907 4.00037 17.0447 4.02991 17.172 4.08674C17.2993 4.14357 17.4133 4.22645 17.5067 4.33004C17.601 4.43504 17.6719 4.55883 17.715 4.69327C17.758 4.82771 17.7721 4.96975 17.7564 5.11004L17.4368 8.00002ZM14.0008 18C14.2657 18 14.5198 17.8946 14.7071 17.7071C14.8944 17.5195 14.9997 17.2652 14.9997 17V13C14.9997 12.7348 14.8944 12.4804 14.7071 12.2929C14.5198 12.1054 14.2657 12 14.0008 12C13.7359 12 13.4819 12.1054 13.2946 12.2929C13.1072 12.4804 13.002 12.7348 13.002 13V17C13.002 17.2652 13.1072 17.5195 13.2946 17.7071C13.4819 17.8946 13.7359 18 14.0008 18ZM10.0055 18C10.2704 18 10.5245 17.8946 10.7118 17.7071C10.8991 17.5195 11.0044 17.2652 11.0044 17V13C11.0044 12.7348 10.8991 12.4804 10.7118 12.2929C10.5245 12.1054 10.2704 12 10.0055 12C9.74063 12 9.48657 12.1054 9.29926 12.2929C9.11194 12.4804 9.00671 12.7348 9.00671 13V17C9.00671 17.2652 9.11194 17.5195 9.29926 17.7071C9.48657 17.8946 9.74063 18 10.0055 18Z" fill="#3B3E44"/>
</svg>
