<svg width="14" height="14" viewBox="0 0 14 14" fill="none" xmlns="http://www.w3.org/2000/svg">
<path fill-rule="evenodd" clip-rule="evenodd" d="M5.19224 10.8933V8.18125H6.70116C7.54668 8.18125 8.20339 7.9824 8.67127 7.5847C9.1425 7.187 9.37811 6.63056 9.37811 5.91536C9.37811 5.21688 9.13748 4.65543 8.65623 4.23099C8.17833 3.80655 7.53165 3.59434 6.71619 3.59434H3.92394V10.8933H5.19224ZM6.71619 7.16361H5.19224V4.61699H6.75129C7.17238 4.62368 7.50324 4.74566 7.74386 4.98294C7.98449 5.21688 8.1048 5.53103 8.1048 5.92539C8.1048 6.32643 7.98616 6.6339 7.74888 6.84779C7.51159 7.05833 7.16737 7.16361 6.71619 7.16361Z" fill="#84878B"/>
<path fill-rule="evenodd" clip-rule="evenodd" d="M0 1.28333C0 0.574568 0.574568 0 1.28333 0H12.7167C13.4254 0 14 0.574568 14 1.28333V12.7167C14 13.4254 13.4254 14 12.7167 14H1.28333C0.574568 14 0 13.4254 0 12.7167V1.28333ZM1.28333 1.28333H12.7167V12.7167H1.28333V1.28333Z" fill="#84878B"/>
</svg>
