<svg width="25" height="24" viewBox="0 0 25 24" fill="none" xmlns="http://www.w3.org/2000/svg">
<path d="M12.2886 12.2071C12.7744 11.7724 13.164 11.2347 13.431 10.6306C13.698 10.0265 13.8362 9.37008 13.8362 8.70588C13.8362 7.4578 13.3567 6.26085 12.5031 5.37832C11.6495 4.4958 10.4917 4 9.28457 4C8.0774 4 6.91967 4.4958 6.06608 5.37832C5.21248 6.26085 4.73293 7.4578 4.73293 8.70588C4.73293 9.37008 4.87112 10.0265 5.13814 10.6306C5.40516 11.2347 5.79476 11.7724 6.28049 12.2071C5.00616 12.8037 3.92499 13.7671 3.16624 14.9822C2.4075 16.1972 2.00329 17.6125 2.00195 19.0588C2.00195 19.3084 2.09786 19.5478 2.26858 19.7243C2.4393 19.9008 2.67085 20 2.91228 20C3.15371 20 3.38526 19.9008 3.55598 19.7243C3.7267 19.5478 3.82261 19.3084 3.82261 19.0588C3.82261 17.5611 4.39806 16.1248 5.42238 15.0658C6.4467 14.0067 7.83597 13.4118 9.28457 13.4118C10.7332 13.4118 12.1224 14.0067 13.1468 15.0658C14.1711 16.1248 14.7465 17.5611 14.7465 19.0588C14.7465 19.3084 14.8424 19.5478 15.0132 19.7243C15.1839 19.9008 15.4154 20 15.6569 20C15.8983 20 16.1298 19.9008 16.3006 19.7243C16.4713 19.5478 16.5672 19.3084 16.5672 19.0588C16.5658 17.6125 16.1616 16.1972 15.4029 14.9822C14.6442 13.7671 13.563 12.8037 12.2886 12.2071V12.2071ZM9.28457 11.5294C8.74443 11.5294 8.21642 11.3638 7.76732 11.0536C7.31821 10.7433 6.96817 10.3023 6.76147 9.7864C6.55477 9.27047 6.50069 8.70275 6.60606 8.15504C6.71144 7.60733 6.97154 7.10422 7.35347 6.70935C7.73541 6.31447 8.22202 6.04555 8.75178 5.93661C9.28154 5.82766 9.83065 5.88358 10.3297 6.09728C10.8287 6.31099 11.2552 6.67289 11.5553 7.13721C11.8554 7.60154 12.0156 8.14744 12.0156 8.70588C12.0156 9.45473 11.7278 10.1729 11.2157 10.7024C10.7035 11.2319 10.0089 11.5294 9.28457 11.5294ZM18.1512 11.8306C18.7337 11.1523 19.1143 10.3144 19.247 9.41773C19.3797 8.52106 19.259 7.60383 18.8992 6.77647C18.5395 5.94911 17.9562 5.24687 17.2194 4.75428C16.4827 4.26169 15.6239 3.99976 14.7465 4C14.5051 4 14.2736 4.09916 14.1028 4.27566C13.9321 4.45217 13.8362 4.69156 13.8362 4.94118C13.8362 5.19079 13.9321 5.43018 14.1028 5.60669C14.2736 5.78319 14.5051 5.88235 14.7465 5.88235C15.4708 5.88235 16.1655 6.17983 16.6776 6.70935C17.1898 7.23886 17.4775 7.95704 17.4775 8.70588C17.4762 9.20023 17.3494 9.68556 17.1098 10.1133C16.8702 10.5411 16.5261 10.8964 16.112 11.1435C15.9771 11.224 15.8643 11.339 15.7846 11.4774C15.7049 11.6158 15.6609 11.7731 15.6569 11.9341C15.6531 12.0939 15.6887 12.252 15.7603 12.3937C15.832 12.5353 15.9374 12.6557 16.0665 12.7435L16.4215 12.9882L16.5399 13.0541C17.6372 13.5922 18.5629 14.4433 19.208 15.5071C19.8531 16.571 20.1908 17.8032 20.1812 19.0588C20.1812 19.3084 20.2771 19.5478 20.4478 19.7243C20.6185 19.9008 20.8501 20 21.0915 20C21.3329 20 21.5645 19.9008 21.7352 19.7243C21.9059 19.5478 22.0018 19.3084 22.0018 19.0588C22.0093 17.6145 21.6594 16.1922 20.9854 14.9271C20.3115 13.662 19.3358 12.5961 18.1512 11.8306V11.8306Z" fill="#3B3E44"/>
</svg>
