<svg width="25" height="24" viewBox="0 0 25 24" fill="none" xmlns="http://www.w3.org/2000/svg">
<path d="M2.97694 16.3132C2.35263 16.9383 2.00195 17.7856 2.00195 18.6691C2.00195 19.5526 2.35263 20.3999 2.97694 21.025C3.60203 21.6493 4.44938 22 5.33284 22C6.21631 22 7.06365 21.6493 7.68874 21.025C8.27763 20.393 8.59822 19.5571 8.58299 18.6935C8.56775 17.8298 8.21786 17.0057 7.60705 16.3949C6.99624 15.7841 6.17218 15.4342 5.30849 15.419C4.44481 15.4037 3.60892 15.7243 2.97694 16.3132V16.3132ZM6.12185 19.4581C5.91259 19.6674 5.62878 19.7849 5.33284 19.7849C5.03691 19.7849 4.75309 19.6674 4.54384 19.4581C4.33458 19.2489 4.21702 18.965 4.21702 18.6691C4.21702 18.3732 4.33458 18.0894 4.54384 17.8801C4.64714 17.776 4.77005 17.6933 4.90547 17.6369C5.04089 17.5804 5.18614 17.5514 5.33284 17.5514C5.47954 17.5514 5.62479 17.5804 5.76021 17.6369C5.89563 17.6933 6.01854 17.776 6.12185 17.8801C6.226 17.9834 6.30868 18.1063 6.36509 18.2417C6.42151 18.3772 6.45056 18.5224 6.45056 18.6691C6.45056 18.8158 6.42151 18.9611 6.36509 19.0965C6.30868 19.2319 6.226 19.3548 6.12185 19.4581ZM5.33284 10.8902C5.03811 10.8902 4.75546 11.0073 4.54705 11.2157C4.33865 11.4241 4.22157 11.7067 4.22157 12.0015C4.22157 12.2962 4.33865 12.5789 4.54705 12.7873C4.75546 12.9957 5.03811 13.1127 5.33284 13.1127C6.80648 13.1127 8.21977 13.6981 9.26179 14.7402C10.3038 15.7822 10.8892 17.1955 10.8892 18.6691C10.8892 18.9638 11.0063 19.2465 11.2147 19.4549C11.4231 19.6633 11.7058 19.7804 12.0005 19.7804C12.2952 19.7804 12.5779 19.6633 12.7863 19.4549C12.9947 19.2465 13.1118 18.9638 13.1118 18.6691C13.1118 16.606 12.2922 14.6274 10.8334 13.1686C9.37454 11.7098 7.39594 10.8902 5.33284 10.8902ZM5.33284 6.4451C5.03811 6.4451 4.75546 6.56218 4.54705 6.77058C4.33865 6.97899 4.22157 7.26164 4.22157 7.55637C4.22157 7.8511 4.33865 8.13376 4.54705 8.34216C4.75546 8.55056 5.03811 8.66764 5.33284 8.66764C7.9854 8.66764 10.5293 9.72137 12.4049 11.597C14.2806 13.4726 15.3343 16.0166 15.3343 18.6691C15.3343 18.9638 15.4514 19.2465 15.6598 19.4549C15.8682 19.6633 16.1509 19.7804 16.4456 19.7804C16.7403 19.7804 17.023 19.6633 17.2314 19.4549C17.4398 19.2465 17.5569 18.9638 17.5569 18.6691C17.5482 15.4286 16.2625 12.3222 13.9786 10.0234C11.6798 7.73942 8.57333 6.45371 5.33284 6.4451V6.4451ZM17.1235 6.87849C13.9883 3.76419 9.75188 2.01132 5.33284 2C5.03811 2 4.75546 2.11708 4.54705 2.32548C4.33865 2.53389 4.22157 2.81655 4.22157 3.11127C4.22157 3.406 4.33865 3.68866 4.54705 3.89706C4.75546 4.10547 5.03811 4.22255 5.33284 4.22255C9.16431 4.22255 12.8388 5.74459 15.5481 8.45385C18.2574 11.1631 19.7794 14.8376 19.7794 18.6691C19.7794 18.9638 19.8965 19.2465 20.1049 19.4549C20.3133 19.6633 20.596 19.7804 20.8907 19.7804C21.1854 19.7804 21.4681 19.6633 21.6765 19.4549C21.8849 19.2465 22.002 18.9638 22.002 18.6691C21.9906 14.2501 20.2378 10.0136 17.1235 6.87849Z" fill="#3B3E44"/>
</svg>
